<svg xmlns="http://www.w3.org/2000/svg" version="1.1" width="1500" height="950"
     viewBox="0 0 1500 950">
  <g transform="matrix(1,0,0,1,0.7709111662345549,0.3846153846153584)">
    <svg viewBox="0 0 390 247"
                                                                            data-background-color="#efe9dd" preserveAspectRatio="xMidYMid meet" height="950" width="1500" xmlns="http://www.w3.org/2000/svg"><g id="tight-bounds" transform="matrix(1,0,0,1,-0.20043690322097518,-0.09999999999999432)"><svg viewBox="0 0 390.40087380644195 247.2" height="247.2" width="390.40087380644195"><g><svg viewBox="0 0 395.52 250.44140666671493" height="247.2" width="390.40087380644195"><g transform="matrix(1,0,0,1,0,154.78283653096832)"><svg viewBox="0 0 395.52 95.6585701357466" height="95.6585701357466" width="395.52"><g id="textblocktransform"><svg viewBox="0 0 395.52 95.6585701357466" height="95.6585701357466" width="395.52" id="textblock"><g><svg viewBox="0 0 395.52 95.6585701357466" height="95.6585701357466" width="395.52"><g transform="matrix(1,0,0,1,0,0)"><svg width="395.52" viewBox="1.29 -39.11 220.3 52.2" height="95.6585701357466" data-palette-color="#8a2851"><g class="wordmark-text-0" data-fill-palette-color="primary" id="text-0">
      <path d="M17.94-31.98L17.94 0 13.16 0 13.16-31.98 1.29-31.98 2.03-35.77 30.3-35.77 29.57-31.98 17.94-31.98ZM56.3-4.83L56.3-2.2Q55.37-1.54 54.16-1.04 52.95-0.54 51.66-0.2 50.36 0.15 49.06 0.32 47.75 0.49 46.63 0.49L46.63 0.49Q44.14 0.49 41.89-0.34 39.65-1.17 37.96-2.78 36.28-4.39 35.28-6.77 34.27-9.16 34.27-12.26L34.27-12.26Q34.27-15.45 35.34-18.07 36.4-20.68 38.18-22.52 39.96-24.37 42.29-25.37 44.63-26.37 47.19-26.37L47.19-26.37Q49.27-26.37 51.06-25.67 52.85-24.98 54.18-23.58 55.52-22.19 56.27-20.1 57.03-18.02 57.03-15.23L57.03-15.23Q57.03-14.67 56.98-13.89 56.93-13.11 56.78-12.26L56.78-12.26 39.11-12.26Q39.11-10.16 39.85-8.51 40.6-6.86 41.95-5.73 43.31-4.59 45.19-4 47.07-3.42 49.34-3.42L49.34-3.42Q49.9-3.42 50.71-3.47 51.51-3.52 52.44-3.66 53.37-3.81 54.37-4.09 55.37-4.37 56.3-4.83L56.3-4.83ZM39.11-15.14L52.63-15.14Q52.63-16.97 52.12-18.37 51.61-19.78 50.73-20.73 49.85-21.68 48.69-22.17 47.53-22.66 46.21-22.66L46.21-22.66Q44.75-22.66 43.45-22.06 42.16-21.46 41.2-20.43 40.23-19.41 39.67-18.04 39.11-16.67 39.11-15.14L39.11-15.14ZM82.37-4.83L82.37-2.2Q80.85-1.03 78.77-0.27 76.68 0.49 74.21 0.49L74.21 0.49Q71.58 0.49 69.44-0.43 67.3-1.34 65.79-2.98 64.28-4.61 63.46-6.9 62.64-9.18 62.64-11.89L62.64-11.89Q62.64-15.04 63.72-17.7 64.79-20.36 66.66-22.29 68.53-24.22 71.06-25.29 73.6-26.37 76.51-26.37L76.51-26.37Q77.19-26.37 77.99-26.31 78.78-26.25 79.56-26.1 80.34-25.95 81.07-25.74 81.81-25.54 82.37-25.24L82.37-25.24 81.39-21.19 80.85-20.95Q80.37-21.31 79.74-21.63 79.12-21.95 78.43-22.17 77.73-22.39 76.98-22.52 76.24-22.66 75.53-22.66L75.53-22.66Q73.9-22.66 72.44-22.01 70.99-21.36 69.89-20.13 68.79-18.9 68.16-17.1 67.52-15.31 67.52-13.01L67.52-13.01Q67.52-10.67 68.2-8.89 68.87-7.1 70.04-5.88 71.21-4.66 72.82-4.04 74.43-3.42 76.31-3.42L76.31-3.42Q77.44-3.42 79.02-3.7 80.61-3.98 82.37-4.83L82.37-4.83ZM89.59 0L89.59-39.11 94.23-39.11 94.23-21.68Q95.11-22.46 96.18-23.29 97.26-24.12 98.5-24.8 99.75-25.49 101.12-25.93 102.48-26.37 103.95-26.37L103.95-26.37Q105.71-26.37 107.13-25.7 108.56-25.02 109.59-23.82 110.61-22.61 111.16-20.91 111.71-19.21 111.71-17.14L111.71-17.14 111.71 0 107.07 0 107.07-16.75Q107.07-18.16 106.67-19.24 106.27-20.31 105.57-21.03 104.88-21.75 103.9-22.11 102.92-22.46 101.8-22.46L101.8-22.46Q99.75-22.46 97.92-21.39 96.09-20.31 94.23-18.55L94.23-18.55 94.23 0 89.59 0ZM124.5 0L120.23 0 122.94-35.77 130.12-35.77 138.95-10.79 140.32-6.13 140.81-6.13 142.15-10.79 151.02-35.77 158.22-35.77 160.93 0 156.22 0 154.31-28.08 154.12-33.2 153.65-33.2 152.24-28.32 142.57-0.73 138.25-0.73 128.48-28.27 127.02-33.2 126.55-33.2 126.41-28.13 124.5 0ZM183.24-3.86L183.24-3.86Q182.63-3.34 181.76-2.6 180.9-1.86 179.81-1.17 178.72-0.49 177.44 0 176.16 0.49 174.72 0.49L174.72 0.49Q173.43 0.49 172.19 0.04 170.96-0.42 170.01-1.31 169.05-2.2 168.48-3.52 167.91-4.83 167.91-6.54L167.91-6.54Q167.91-7.59 168.16-8.67 168.42-9.74 169.03-10.73 169.64-11.72 170.63-12.59 171.62-13.45 173.07-14.1 174.52-14.75 176.5-15.11 178.48-15.48 181.04-15.48L181.04-15.48 183.24-15.48 183.24-17.72Q183.24-18.85 182.85-19.75 182.46-20.65 181.76-21.3 181.07-21.95 180.1-22.3 179.14-22.66 177.97-22.66L177.97-22.66Q177.09-22.66 176.1-22.46 175.11-22.27 174.12-21.9 173.13-21.53 172.23-21.04 171.33-20.56 170.64-19.97L170.64-19.97 170.2-20.21 169.23-23.78Q170.64-24.56 171.96-25.06 173.28-25.56 174.49-25.85 175.7-26.15 176.79-26.26 177.89-26.37 178.89-26.37L178.89-26.37Q183.46-26.37 185.67-24.48 187.88-22.58 187.88-18.8L187.88-18.8 187.88-6.05Q187.88-5.74 187.93-5.29 187.98-4.83 188.16-4.42 188.34-4 188.7-3.71 189.05-3.42 189.66-3.42L189.66-3.42Q190-3.42 190.56-3.53 191.13-3.64 191.69-3.91L191.69-3.91 191.69-1.32Q190.51-0.51 189.33-0.01 188.15 0.49 187.05 0.49L187.05 0.49Q186.05 0.49 185.4 0.09 184.75-0.32 184.33-0.95 183.9-1.59 183.65-2.36 183.41-3.13 183.24-3.86ZM183.24-6.98L183.24-12.65 181.38-12.65Q178.53-12.65 176.83-12.24 175.13-11.84 174.24-11.17 173.35-10.5 173.07-9.62 172.79-8.74 172.79-7.79L172.79-7.79Q172.79-6.76 173.08-5.96 173.38-5.15 173.9-4.58 174.43-4 175.16-3.71 175.89-3.42 176.75-3.42L176.75-3.42Q177.4-3.42 178.1-3.58 178.8-3.74 179.59-4.14 180.38-4.54 181.27-5.22 182.17-5.91 183.24-6.98L183.24-6.98ZM201.96-18.55L201.96-4.39Q202.65-4.05 203.42-3.83 204.18-3.61 204.95-3.48 205.72-3.34 206.43-3.28 207.14-3.22 207.65-3.22L207.65-3.22Q209.65-3.22 211.33-3.98 213-4.74 214.19-6.08 215.39-7.42 216.05-9.24 216.71-11.06 216.71-13.18L216.71-13.18Q216.71-15.06 216.18-16.75 215.66-18.43 214.69-19.7 213.73-20.97 212.38-21.72 211.02-22.46 209.38-22.46L209.38-22.46Q207.36-22.46 205.49-21.37 203.62-20.29 201.96-18.55L201.96-18.55ZM200.84-25.88L201.67-21.39Q202.52-22.22 203.56-23.1 204.6-23.97 205.82-24.71 207.04-25.44 208.46-25.9 209.87-26.37 211.48-26.37L211.48-26.37Q213.85-26.37 215.72-25.33 217.59-24.29 218.89-22.57 220.2-20.85 220.9-18.62 221.59-16.38 221.59-13.99L221.59-13.99Q221.59-10.84 220.43-8.18 219.27-5.52 217.29-3.59 215.32-1.66 212.67-0.59 210.02 0.49 207.04 0.49L207.04 0.49Q205.82 0.49 204.43 0.32 203.04 0.15 201.96-0.15L201.96-0.15 201.96 13.09 197.32 13.09 197.32-25.88 200.84-25.88Z" fill="#8a2851" data-fill-palette-color="primary"></path>
    </g></svg></g></svg></g></svg></g></svg></g><g transform="matrix(1,0,0,1,100.25601197309311,0)"><svg viewBox="0 0 195.00797605381376 132.2001439276018" height="132.2001439276018" width="195.00797605381376"><g>
        <svg xmlns="http://www.w3.org/2000/svg"  version="1.1" x="0" y="0" viewBox="1.7479999999999993 18 96.253 65.252" enable-background="new 0 0 100 100" xml:space="preserve" height="132.2001439276018" width="195.00797605381376" class="icon-icon-0" data-fill-palette-color="accent" id="icon-0"><g fill="#c7a2c3" data-fill-palette-color="accent"><path fill="#c7a2c3" d="M91.567 18H8.181c-3.548 0-6.433 2.888-6.433 6.432V76.82c0 3.543 2.885 6.432 6.433 6.432h83.387c3.548 0 6.433-2.889 6.433-6.432V24.432C98 20.888 95.115 18 91.567 18zM58.681 75.264c1.047-1.822 2.852-2.627 3.421-4.682 0.625-2.264-0.186-3.857 1.158-6.023 1.525-2.449 2.795-3.172 5.825-3.068 2.985 0.084 6.525 0.203 8.613 2.531 1.027 1.133 0.812 2.742 2.546 3.574 0.793 0.379 2.044-0.008 2.918 0.344 2.052 0.803 2.6 2.717 3.365 4.488 1.222 2.852 2.814 3.268 5.558 4.348 0.41 0.938 0.037 2.203-0.666 3.574H58.104C57.731 78.576 57.869 76.709 58.681 75.264zM55.465 50.167l0.674 0.127c0.658 0.082 1.284 0.193 1.806 0.365l-1.806-0.365c-0.197-0.008-0.395-0.029-0.581-0.052 0.552 0.589 1.426 0.335 2.208 0.492 0.041-0.009 0.093-0.023 0.134-0.038 0.008 0.029 0.008 0.038 0.015 0.06 0.31 0.09 0.607 0.269 0.842 0.611 1.251-0.299 1.994 1.064 3.618 0.803 0.138 0.418 0.521 1.043 0.606 1.43 0.187 0.082 0.156-0.312 0.361-0.207 0 0.029 0.011 0.668 0.011 0.668-2.274 0.559-1.593-0.959-2.725-1.592-1.191-0.656-2.424 0.133-2.714-1.712-0.056-0.007-0.101-0.015-0.148-0.021-0.969 0.245-2.163 0.498-3.253 0.378-0.016-0.32-0.045-0.587 0-0.916 0.335 0 0.691 0.022 1.045 0.045C55.531 50.22 55.49 50.198 55.465 50.167zM60.46 54.873c0.495-0.104 0.909-0.029 1.259 0.172l-0.552-0.447c0.778 0.238 1.334 0.492 1.448 1.199-0.559 0.133-1.593 0.133-2.155 0C60.435 55.469 60.427 55.201 60.46 54.873zM72.555 53.861l-0.496-0.254c0.403 0 0.831 0.148 1.203 0.291 0.104 0.387 0.111 0.967 0 1.355C71.984 55.275 71.314 54.479 72.555 53.861zM64.934 20.903c1.285 1.593-0.952 2.315-0.521 3.99 0.384 1.474 1.616-2.427 2.155-2.486 0.392 1.25 2.114 1.519 3.246 1.98 0.22 1.541-1.157 1.593-2.423 1.459 0.07 3.767-2.979 2.33-4.98 3.461-2.024 1.154-2.938 3.566-3.235 5.643-0.438 3.067-2.609 3.782-3.645 6.165-1.287 2.963 2.562 3.67 1.862 6.075-2.04-0.38-2.87-2.993-5.126-3.625-3.067-0.878-12.195 1.429-13.583 4.69-1.623 3.774 1.958 9.12 6.332 7.274 1.508-0.635 2.554-4.631 4.705-3.293l0.298 2.854c0.241 3.631 5.241 7.184 6.183 8.545 0.93 1.342 4.039 1.795 5.609 2.07 1.69 5.494-8.334-0.959-9.347-1.586-0.804-0.49-1.467-1.398-2.274-1.838-1.176-0.625-2.735-0.35-3.89-0.805-1.783-0.67-2.669-1.607-4.939-1.721-4.794-0.229-9.157-0.811-11.841-5.137-1.652-2.656-5.874-11.173-9.437-10.317-0.365 4.162 8.8 6.12 6.618 10.251-3.134 0.395-5.415-5.732-6.964-7.965-2.331-3.373-6.104-6.604-5.87-10.876 0.093-1.839 0.874-3.38 0.732-5.234-0.156-1.936-1.022-3.67-1.246-5.643-0.73-6.983-4.188-0.484-8.13-1.288 0.034-0.789 0.339-1.392 0.793-1.891 0.596-0.469 1.343-0.752 2.163-0.752H64.934zM4.674 24.053c-0.004 0.044-0.004 0.074-0.008 0.111C4.67 24.127 4.67 24.097 4.674 24.053z" data-fill-palette-color="accent"></path></g></svg></g></svg></g><g></g></svg></g><defs></defs></svg><rect width="390.40087380644195" height="247.2" fill="none" stroke="none" visibility="hidden"></rect></g></svg></g></svg>
